<svg width="24" height="19" viewBox="0 0 24 19" fill="none" xmlns="http://www.w3.org/2000/svg">
<path d="M23.4 7.71875H21V5.34375C21 5.01719 20.73 4.75 20.4 4.75H19.2C18.87 4.75 18.6 5.01719 18.6 5.34375V7.71875H16.2C15.87 7.71875 15.6 7.98594 15.6 8.3125V9.5C15.6 9.82656 15.87 10.0938 16.2 10.0938H18.6V12.4688C18.6 12.7953 18.87 13.0625 19.2 13.0625H20.4C20.73 13.0625 21 12.7953 21 12.4688V10.0938H23.4C23.73 10.0938 24 9.82656 24 9.5V8.3125C24 7.98594 23.73 7.71875 23.4 7.71875ZM8.4 9.5C11.0513 9.5 13.2 7.37363 13.2 4.75C13.2 2.12637 11.0513 0 8.4 0C5.74875 0 3.6 2.12637 3.6 4.75C3.6 7.37363 5.74875 9.5 8.4 9.5ZM11.76 10.6875H11.1337C10.3013 11.066 9.375 11.2812 8.4 11.2812C7.425 11.2812 6.5025 11.066 5.66625 10.6875H5.04C2.2575 10.6875 0 12.9215 0 15.675V17.2188C0 18.2021 0.80625 19 1.8 19H15C15.9938 19 16.8 18.2021 16.8 17.2188V15.675C16.8 12.9215 14.5425 10.6875 11.76 10.6875Z" fill="#9646F5"/>
</svg>
