<svg width="58" height="36" viewBox="0 0 58 36" fill="none" xmlns="http://www.w3.org/2000/svg">
    <path d="M36 8H30V14H28V8H22V6H28V0H30V6H36V8Z" fill="#9646F5"/>
    <path d="M4.26479 27.286L2.73879 31.374H5.83279L4.26479 27.286ZM4.89479 25.48L8.56279 34.804L7.23279 35L6.23879 32.452H2.36079L1.40879 35H0.0927891L3.67679 25.48H4.89479ZM12.5834 29.134C11.8834 29.134 11.3887 29.3813 11.0994 29.876C10.8194 30.3707 10.6794 30.94 10.6794 31.584C10.6794 32.2653 10.8147 32.844 11.0854 33.32C11.3561 33.796 11.8554 34.034 12.5834 34.034C12.8354 34.034 13.0967 33.978 13.3674 33.866C13.6474 33.7447 13.9134 33.5813 14.1654 33.376V29.792C13.9134 29.5867 13.6474 29.428 13.3674 29.316C13.0967 29.1947 12.8354 29.134 12.5834 29.134ZM15.5234 25.13V35H14.7534L14.3894 34.37C14.1001 34.622 13.7594 34.8227 13.3674 34.972C12.9847 35.112 12.6301 35.182 12.3034 35.182C11.3141 35.182 10.5674 34.8413 10.0634 34.16C9.55941 33.4787 9.30741 32.6247 9.30741 31.598C9.30741 30.562 9.56408 29.7033 10.0774 29.022C10.6001 28.3313 11.3561 27.986 12.3454 27.986C12.6254 27.986 12.9287 28.0467 13.2554 28.168C13.5821 28.28 13.8854 28.4293 14.1654 28.616V25.27L15.5234 25.13ZM20.5268 29.134C19.8268 29.134 19.3321 29.3813 19.0428 29.876C18.7628 30.3707 18.6228 30.94 18.6228 31.584C18.6228 32.2653 18.7581 32.844 19.0288 33.32C19.2994 33.796 19.7988 34.034 20.5268 34.034C20.7788 34.034 21.0401 33.978 21.3108 33.866C21.5908 33.7447 21.8568 33.5813 22.1088 33.376V29.792C21.8568 29.5867 21.5908 29.428 21.3108 29.316C21.0401 29.1947 20.7788 29.134 20.5268 29.134ZM23.4668 25.13V35H22.6968L22.3328 34.37C22.0434 34.622 21.7028 34.8227 21.3108 34.972C20.9281 35.112 20.5734 35.182 20.2468 35.182C19.2574 35.182 18.5108 34.8413 18.0068 34.16C17.5028 33.4787 17.2508 32.6247 17.2508 31.598C17.2508 30.562 17.5074 29.7033 18.0208 29.022C18.5434 28.3313 19.2994 27.986 20.2888 27.986C20.5688 27.986 20.8721 28.0467 21.1988 28.168C21.5254 28.28 21.8288 28.4293 22.1088 28.616V25.27L23.4668 25.13ZM29.1607 35V25.48H30.3507L34.6207 31.472L35.2927 32.522V25.48H36.6507V35H35.4467L31.0367 28.742L30.5047 27.902V35H29.1607ZM41.7422 35.182C40.7156 35.1727 39.9362 34.8367 39.4042 34.174C38.8722 33.502 38.6062 32.6387 38.6062 31.584C38.6156 30.5387 38.9049 29.6893 39.4742 29.036C40.0436 28.3733 40.8416 28.0373 41.8682 28.028C42.9322 28.028 43.7349 28.3687 44.2762 29.05C44.8269 29.722 45.1022 30.59 45.1022 31.654C45.1022 32.7087 44.8036 33.558 44.2062 34.202C43.6089 34.846 42.7876 35.1727 41.7422 35.182ZM43.7442 31.654C43.7442 30.926 43.5996 30.3333 43.3102 29.876C43.0209 29.4093 42.5542 29.176 41.9102 29.176C41.2662 29.176 40.7856 29.3953 40.4682 29.834C40.1509 30.2633 39.9876 30.842 39.9782 31.57C39.9782 32.326 40.1136 32.928 40.3842 33.376C40.6642 33.8147 41.1262 34.034 41.7702 34.034C42.4049 34.034 42.8902 33.824 43.2262 33.404C43.5622 32.984 43.7349 32.4007 43.7442 31.654ZM50.2346 34.944C50.1132 35.0093 49.9406 35.0747 49.7166 35.14C49.5019 35.2053 49.2919 35.238 49.0866 35.238C48.4239 35.238 47.8966 35.056 47.5046 34.692C47.1126 34.328 46.9166 33.8007 46.9166 33.11V29.316H45.9646L45.9506 28.294H46.9166V26.6L48.2606 26.292V28.294H49.4926L49.9126 29.316H48.2606V32.9C48.2606 33.2453 48.3352 33.53 48.4846 33.754C48.6432 33.9687 48.8906 34.076 49.2266 34.076C49.3386 34.076 49.4506 34.062 49.5626 34.034C49.6839 33.9967 49.7912 33.9593 49.8846 33.922L50.2346 34.944ZM57.4004 31.906H52.5844C52.631 32.5313 52.827 33.0447 53.1724 33.446C53.5177 33.8473 54.0357 34.048 54.7264 34.048C55.1277 34.048 55.4637 34.006 55.7344 33.922C56.0144 33.8287 56.2944 33.7167 56.5744 33.586L56.9944 34.566C56.6957 34.7713 56.313 34.9207 55.8464 35.014C55.389 35.1167 55.0157 35.168 54.7264 35.168C53.5877 35.168 52.7104 34.8413 52.0944 34.188C51.4877 33.5253 51.1844 32.662 51.1844 31.598C51.1844 30.5433 51.469 29.6847 52.0384 29.022C52.617 28.3593 53.415 28.028 54.4324 28.028C55.5337 28.028 56.3037 28.4153 56.7424 29.19C57.181 29.9647 57.4004 30.87 57.4004 31.906ZM56.0984 30.996C56.0144 30.436 55.837 29.9927 55.5664 29.666C55.2957 29.3393 54.9037 29.176 54.3904 29.176C53.8677 29.176 53.457 29.344 53.1584 29.68C52.8597 30.0067 52.6777 30.4453 52.6124 30.996H56.0984Z" fill="#9646F5"/>
</svg>
