<svg width="24" height="19" viewBox="0 0 24 19" fill="none" xmlns="http://www.w3.org/2000/svg">
<path d="M21.9958 0H2.00417C0.895833 0 0 0.895833 0 2V16.6667C0 17.7708 0.895833 18.6667 2.00417 18.6667H21.9958C23.1042 18.6667 24 17.7708 24 16.6667V2C24 0.895833 23.1042 0 21.9958 0ZM2.25417 2H21.7458C21.8833 2 21.9958 2.1125 21.9958 2.25V4H2.00417V2.25C2.00417 2.1125 2.11667 2 2.25417 2ZM21.7458 16.6667H2.25417C2.11667 16.6667 2.00417 16.5542 2.00417 16.4167V9.33333H21.9958V16.4167C21.9958 16.5542 21.8833 16.6667 21.7458 16.6667ZM8 12.5V14.1667C8 14.4417 7.775 14.6667 7.5 14.6667H4.5C4.225 14.6667 4 14.4417 4 14.1667V12.5C4 12.225 4.225 12 4.5 12H7.5C7.775 12 8 12.225 8 12.5ZM16 12.5V14.1667C16 14.4417 15.775 14.6667 15.5 14.6667H9.83333C9.55833 14.6667 9.33333 14.4417 9.33333 14.1667V12.5C9.33333 12.225 9.55833 12 9.83333 12H15.5C15.775 12 16 12.225 16 12.5Z" fill="#9B9B9B"/>
</svg>
