<svg width="18" height="14" viewBox="0 0 18 14" fill="none" xmlns="http://www.w3.org/2000/svg">
    <path d="M2.7 6.125C3.69281 6.125 4.5 5.34023 4.5 4.375C4.5 3.40977 3.69281 2.625 2.7 2.625C1.70719 2.625 0.9 3.40977 0.9 4.375C0.9 5.34023 1.70719 6.125 2.7 6.125ZM15.3 6.125C16.2928 6.125 17.1 5.34023 17.1 4.375C17.1 3.40977 16.2928 2.625 15.3 2.625C14.3072 2.625 13.5 3.40977 13.5 4.375C13.5 5.34023 14.3072 6.125 15.3 6.125ZM16.2 7H14.4C13.905 7 13.4578 7.19414 13.1316 7.50859C14.265 8.11289 15.0694 9.20391 15.2437 10.5H17.1C17.5978 10.5 18 10.109 18 9.625V8.75C18 7.78477 17.1928 7 16.2 7ZM9 7C10.7409 7 12.15 5.63008 12.15 3.9375C12.15 2.24492 10.7409 0.875 9 0.875C7.25906 0.875 5.85 2.24492 5.85 3.9375C5.85 5.63008 7.25906 7 9 7ZM11.16 7.875H10.9266C10.3416 8.14844 9.69187 8.3125 9 8.3125C8.30812 8.3125 7.66125 8.14844 7.07344 7.875H6.84C5.05125 7.875 3.6 9.28594 3.6 11.025V11.8125C3.6 12.5371 4.20469 13.125 4.95 13.125H13.05C13.7953 13.125 14.4 12.5371 14.4 11.8125V11.025C14.4 9.28594 12.9487 7.875 11.16 7.875ZM4.86844 7.50859C4.54219 7.19414 4.095 7 3.6 7H1.8C0.807187 7 0 7.78477 0 8.75V9.625C0 10.109 0.402187 10.5 0.9 10.5H2.75344C2.93062 9.20391 3.735 8.11289 4.86844 7.50859Z" fill="currentColor"/>
</svg>
