<svg width="21" height="24" viewBox="0 0 21 24" fill="none" xmlns="http://www.w3.org/2000/svg">
<path d="M10.4995 24C12.1552 24 13.4981 22.657 13.4981 21H7.50095C7.50095 22.657 8.84392 24 10.4995 24ZM20.596 16.9823C19.6903 16.0092 17.9958 14.5453 17.9958 9.75C17.9958 6.10781 15.442 3.19219 11.9986 2.47688V1.5C11.9986 0.671719 11.3274 0 10.4995 0C9.67173 0 9.00048 0.671719 9.00048 1.5V2.47688C5.55704 3.19219 3.00329 6.10781 3.00329 9.75C3.00329 14.5453 1.30876 16.0092 0.403138 16.9823C0.121888 17.2847 -0.00279962 17.6461 -0.000455872 18C0.00470038 18.7687 0.607981 19.5 1.50423 19.5H19.4949C20.3911 19.5 20.9949 18.7687 20.9995 18C21.0019 17.6461 20.8772 17.2842 20.596 16.9823Z" fill="#9B9B9B"/>
</svg>
