<svg width="14" height="16" viewBox="0 0 14 16" fill="none" xmlns="http://www.w3.org/2000/svg">
    <path d="M11 10C10.2935 10 9.64416 10.2443 9.13156 10.653L5.92887 8.65128C6.02372 8.22226 6.02372 7.77771 5.92887 7.34869L9.13156 5.347C9.64416 5.75566 10.2935 6 11 6C12.6568 6 14 4.65684 14 3C14 1.34316 12.6568 0 11 0C9.34316 0 8 1.34316 8 3C8 3.22369 8.02469 3.44156 8.07113 3.65128L4.86844 5.65297C4.35584 5.24434 3.7065 5 3 5C1.34316 5 0 6.34316 0 8C0 9.65684 1.34316 11 3 11C3.7065 11 4.35584 10.7557 4.86844 10.347L8.07113 12.3487C8.02379 12.5626 7.99994 12.781 8 13C8 14.6568 9.34316 16 11 16C12.6568 16 14 14.6568 14 13C14 11.3432 12.6568 10 11 10Z" fill="currentColor"/>
</svg>
