<svg width="24px" height="24px" viewBox="0 0 24 24" version="1.1" xmlns="http://www.w3.org/2000/svg">
    <path d="M17,3 C19.209139,3 21,4.790861 21,7 L21,17 C21,19.209139 19.209139,21 17,21 L7,21 C4.790861,21 3,19.209139 3,17 L3,7 C3,4.790861 4.790861,3 7,3 L17,3 Z M17,5 L7,5 C5.9456382,5 5.08183488,5.81587779 5.00548574,6.85073766 L5,7 L5,17 C5,18.0543618 5.81587779,18.9181651 6.85073766,18.9945143 L7,19 L17,19 C18.0543618,19 18.9181651,18.1841222 18.9945143,17.1492623 L19,17 L19,7 C19,5.9456382 18.1841222,5.08183488 17.1492623,5.00548574 L17,5 Z" fill="currentColor" />
</svg>
