<svg width="18" height="18" viewBox="0 0 18 18" fill="none" xmlns="http://www.w3.org/2000/svg">
    <path d="M8.984 0.281264C6.65423 0.285448 4.53892 1.20352 2.97721 2.69597L1.72164 1.4404C1.19007 0.908839 0.28125 1.28529 0.28125 2.037V6.75002C0.28125 7.21601 0.659004 7.59377 1.125 7.59377H5.83801C6.58972 7.59377 6.96618 6.68494 6.43465 6.15338L4.96688 4.68561C6.05194 3.66962 7.45597 3.10684 8.94762 3.09398C12.196 3.06592 14.9341 5.69473 14.906 9.05092C14.8794 12.2347 12.2982 14.9063 9 14.9063C7.55413 14.9063 6.18761 14.3902 5.11066 13.4453C4.94392 13.299 4.69209 13.3079 4.53523 13.4648L3.14086 14.8591C2.96958 15.0304 2.97805 15.3097 3.1578 15.472C4.70384 16.8684 6.7526 17.7188 9 17.7188C13.8152 17.7188 17.7187 13.8153 17.7188 9.00009C17.7188 4.19039 13.7937 0.272651 8.984 0.281264Z" fill="currentColor"/>
</svg>
