<svg width="24" height="19" viewBox="0 0 24 19" fill="none" xmlns="http://www.w3.org/2000/svg">
<path d="M4.8 13.0625H1.2C0.537375 13.0625 0 13.5943 0 14.25V17.8125C0 18.4682 0.537375 19 1.2 19H4.8C5.46263 19 6 18.4682 6 17.8125V14.25C6 13.5943 5.46263 13.0625 4.8 13.0625ZM3.9 10.0938H11.1V11.875H12.9V10.0938H20.1V11.875H21.9V9.73787C21.9 8.95227 21.2539 8.3125 20.4596 8.3125H12.9V5.9375H14.4C15.0626 5.9375 15.6 5.40572 15.6 4.75V1.1875C15.6 0.531777 15.0626 0 14.4 0H9.6C8.93738 0 8.4 0.531777 8.4 1.1875V4.75C8.4 5.40572 8.93738 5.9375 9.6 5.9375H11.1V8.3125H3.54038C2.74613 8.3125 2.1 8.95189 2.1 9.73787V11.875H3.9V10.0938ZM13.8 13.0625H10.2C9.53738 13.0625 9 13.5943 9 14.25V17.8125C9 18.4682 9.53738 19 10.2 19H13.8C14.4626 19 15 18.4682 15 17.8125V14.25C15 13.5943 14.4626 13.0625 13.8 13.0625ZM22.8 13.0625H19.2C18.5374 13.0625 18 13.5943 18 14.25V17.8125C18 18.4682 18.5374 19 19.2 19H22.8C23.4626 19 24 18.4682 24 17.8125V14.25C24 13.5943 23.4626 13.0625 22.8 13.0625Z" fill="#9B9B9B"/>
</svg>
